<?xml version="1.0" encoding="UTF-8"?>
<svg version="1.1" xmlns="http://www.w3.org/2000/svg" width="351" height="84">
<path d="M0 0 C115.83 0 231.66 0 351 0 C351 27.72 351 55.44 351 84 C235.17 84 119.34 84 0 84 C0 56.28 0 28.56 0 0 Z " fill="#FDFDFE" transform="translate(0,0)"/>
<path d="M0 0 C1.34658188 -0.0049926 1.34658188 -0.0049926 2.72036743 -0.01008606 C4.6218413 -0.01515421 6.52332407 -0.01749442 8.42480469 -0.01733398 C11.33283183 -0.01951719 14.24047769 -0.03766496 17.1484375 -0.05664062 C18.99479037 -0.05957522 20.84114504 -0.06155957 22.6875 -0.0625 C23.5574057 -0.06968552 24.4273114 -0.07687103 25.32357788 -0.08427429 C26.1376712 -0.08119766 26.95176453 -0.07812103 27.79052734 -0.07495117 C28.50397308 -0.07637619 29.21741882 -0.07780121 29.95248413 -0.07926941 C32.30085487 0.20758058 33.93034706 1.0087532 35.9765625 2.16796875 C35.9765625 2.82796875 35.9765625 3.48796875 35.9765625 4.16796875 C36.6365625 4.16796875 37.2965625 4.16796875 37.9765625 4.16796875 C40.00461048 10.25211268 39.32483507 17.28694455 39.3815918 23.67236328 C39.40315652 25.49579831 39.43724169 27.31913024 39.48413086 29.14208984 C39.55134525 31.78139095 39.57862339 34.41855599 39.59765625 37.05859375 C39.62548691 37.86613098 39.65331757 38.67366821 39.68199158 39.50567627 C39.6621758 45.00935628 38.30159112 47.83233585 34.56019592 51.85931396 C30.75226876 55.006041 25.99587008 54.34695803 21.328125 54.37109375 C20.47858246 54.37679382 19.62903992 54.3824939 18.75375366 54.3883667 C16.95661665 54.3978098 15.15946237 54.40434794 13.36230469 54.40820312 C10.61883213 54.41790766 7.87610923 54.4489366 5.1328125 54.48046875 C3.38542111 54.48699926 1.63802437 54.49224954 -0.109375 54.49609375 C-0.9272348 54.50844055 -1.7450946 54.52078735 -2.58773804 54.5335083 C-7.22413131 54.51545537 -10.27138873 54.19264278 -14.0234375 51.16796875 C-16.03264907 48.1541514 -16.27870938 47.53976458 -16.32983398 44.15893555 C-16.34582138 43.35767746 -16.36180878 42.55641937 -16.37828064 41.73088074 C-16.38364334 40.86836197 -16.38900604 40.0058432 -16.39453125 39.1171875 C-16.40355972 38.22562454 -16.4125882 37.33406158 -16.42189026 36.41548157 C-16.43639869 34.52840535 -16.44528097 32.64127876 -16.44897461 30.75415039 C-16.46085175 27.87624531 -16.51001338 25.00049812 -16.56054688 22.12304688 C-16.57001362 20.28777086 -16.57724745 18.4524817 -16.58203125 16.6171875 C-16.60156357 15.76074142 -16.62109589 14.90429535 -16.64122009 14.02189636 C-16.60931018 9.76539907 -16.34258902 7.0142434 -13.61352539 3.63989258 C-9.29035704 -0.48604574 -5.71928421 0.00728248 0 0 Z " fill="#067DFF" transform="translate(28.0234375,14.83203125)"/>
<path d="M0 0 C1.42505859 0.11794922 1.42505859 0.11794922 2.87890625 0.23828125 C5.4375 0.6875 5.4375 0.6875 8.4375 2.6875 C10.71991617 6.04310524 10.64910217 8.95380011 10.5625 12.9375 C10.54445313 14.01515625 10.52640625 15.0928125 10.5078125 16.203125 C10.48460938 17.02296875 10.46140625 17.8428125 10.4375 18.6875 C9.4475 18.6875 8.4575 18.6875 7.4375 18.6875 C7.1075 19.6775 6.7775 20.6675 6.4375 21.6875 C5.4475 22.0175 4.4575 22.3475 3.4375 22.6875 C3.1075 23.3475 2.7775 24.0075 2.4375 24.6875 C-2.39263021 25.27894452 -6.47572553 25.35135661 -10.625 22.5625 C-14.0131326 19.28467869 -14.10644828 16.15615508 -14.25 11.5625 C-14.16501747 5.48298058 -14.16501747 5.48298058 -11.76953125 2.3203125 C-7.84016575 -0.5867225 -4.77550564 -0.4353182 0 0 Z " fill="#E0EEFF" transform="translate(41.5625,33.3125)"/>
<path d="M0 0 C2.206875 -0.061875 4.41375 -0.12375 6.6875 -0.1875 C8.54955078 -0.23970703 8.54955078 -0.23970703 10.44921875 -0.29296875 C14.23919468 0.01973553 16.01590195 0.70246074 19 3 C21.8916543 7.38733756 22.63975578 10.79056007 22 16 C20.72149449 19.23888062 19.22373442 22.13602084 16.3125 24.19140625 C11.21895343 25.97242676 5.29588564 25.09807196 0 25 C0 16.75 0 8.5 0 0 Z " fill="#121212" transform="translate(89,30)"/>
<path d="M0 0 C1.32 0 2.64 0 4 0 C4 8.91 4 17.82 4 27 C2.35 26.67 0.7 26.34 -1 26 C-1.66 26.33 -2.32 26.66 -3 27 C-7.29322859 27.48602588 -9.32082639 27.46241608 -12.9375 25 C-15.09159963 21.86676418 -15.74851975 19.8218219 -15.48046875 16.00390625 C-14.56255124 12.17551859 -13.01704172 10.56769508 -10 8 C-6.4956772 7.58423289 -4.17878694 7.41060653 -1 9 C-0.67 6.03 -0.34 3.06 0 0 Z " fill="#171717" transform="translate(297,28)"/>
<path d="M0 0 C12.20295813 -0.49304881 12.20295813 -0.49304881 15.8984375 1.79296875 C18 4 18 4 18.4375 7.5625 C18 11 18 11 16 14 C15.34 14 14.68 14 14 14 C15.65 17.63 17.3 21.26 19 25 C17.35 25 15.7 25 14 25 C10 18.25 10 18.25 10 16 C8.02 16 6.04 16 4 16 C4 18.97 4 21.94 4 25 C2.68 25 1.36 25 0 25 C0 16.75 0 8.5 0 0 Z " fill="#111111" transform="translate(217,30)"/>
<path d="M0 0 C1.11375 0.12375 2.2275 0.2475 3.375 0.375 C4.365 0.375 5.355 0.375 6.375 0.375 C7.695 0.375 9.015 0.375 10.375 0.375 C10.375 6.645 10.375 12.915 10.375 19.375 C8.725 19.045 7.075 18.715 5.375 18.375 C4.715 18.705 4.055 19.035 3.375 19.375 C0.0625 19.8125 0.0625 19.8125 -3.625 19.375 C-7.28771372 16.17986675 -8.39803522 14.64600277 -9.25 9.875 C-8.24015324 4.21985812 -6.15269566 0.63648576 0 0 Z " fill="#111111" transform="translate(157.625,35.625)"/>
<path d="M0 0 C2.475 0.495 2.475 0.495 5 1 C6.7634375 0.7215625 6.7634375 0.7215625 8.5625 0.4375 C12.0255283 -0.00324906 13.1855938 0.08620379 16 2 C16.99 1.34 17.98 0.68 19 0 C24.11418542 -0.53272765 24.11418542 -0.53272765 26.67578125 1.0078125 C28.77618434 4.16771096 28.31201218 7.53195006 28.1875 11.1875 C28.16719727 12.31188477 28.16719727 12.31188477 28.14648438 13.45898438 C28.11118539 15.30629767 28.05737917 17.15324066 28 19 C26.68 19 25.36 19 24 19 C23.67 14.38 23.34 9.76 23 5 C19.25308553 3.60229416 19.25308553 3.60229416 17 5 C16.52998967 8.27555608 16.52998967 8.27555608 16.375 12.0625 C16.30023438 13.35285156 16.22546875 14.64320312 16.1484375 15.97265625 C16.09945312 16.97167969 16.05046875 17.97070312 16 19 C14.68 19 13.36 19 12 19 C11.67 14.38 11.34 9.76 11 5 C7.25308553 3.60229416 7.25308553 3.60229416 5 5 C4.52998967 8.27555608 4.52998967 8.27555608 4.375 12.0625 C4.30023438 13.35285156 4.22546875 14.64320312 4.1484375 15.97265625 C4.09945312 16.97167969 4.05046875 17.97070312 4 19 C2.68 19 1.36 19 0 19 C0 12.73 0 6.46 0 0 Z " fill="#161616" transform="translate(173,36)"/>
<path d="M0 0 C2.875 1.5625 2.875 1.5625 5 4 C5.8125 7.75 5.8125 7.75 6 11 C1.38 11 -3.24 11 -8 11 C-7.67 12.32 -7.34 13.64 -7 15 C-1.42169984 15.12469099 -1.42169984 15.12469099 4 14 C4.33 14.99 4.66 15.98 5 17 C0.96514506 19.68990329 -2.26228652 19.77993882 -7 19 C-10.0625 17.0625 -10.0625 17.0625 -12 14 C-12.6912567 10.84078551 -12.70239306 8.15791352 -12 5 C-8.6691068 0.05412828 -5.84239298 -0.93895602 0 0 Z " fill="#181818" transform="translate(252,36)"/>
<path d="M0 0 C2.9375 1.5625 2.9375 1.5625 5 4 C5.3125 7.75 5.3125 7.75 5 11 C0.71 11 -3.58 11 -8 11 C-7.67 11.99 -7.34 12.98 -7 14 C-1.94990405 14.93786082 -1.94990405 14.93786082 3 14 C3 15.32 3 16.64 3 18 C-0.23415916 19.61707958 -3.50375265 19.56822376 -7 19 C-10.13836313 16.97314048 -11.65870267 15.54702808 -12.4765625 11.83984375 C-12.74519692 7.60531698 -12.34576589 5.51340996 -9.9375 1.9375 C-6.23442804 -0.50495172 -4.36043626 -0.7007844 0 0 Z " fill="#151515" transform="translate(317,36)"/>
<path d="M0 0 C2.9375 2.1875 2.9375 2.1875 5 5 C5 6.65 5 8.3 5 10 C0.38 10 -4.24 10 -9 10 C-8.01 11.65 -7.02 13.3 -6 15 C-2.51882027 15.43514747 -0.32660966 15.10886989 3 14 C3 15.32 3 16.64 3 18 C-0.50317094 19.75158547 -4.18694726 19.6837198 -8 19 C-11.63715985 15.95666217 -12.82298645 14.12108584 -13.5625 9.4375 C-12.91429589 5.47625263 -11.81200626 3.81200626 -9 1 C-5.86128812 -0.56935594 -3.46144178 -0.35201103 0 0 Z " fill="#0E0E0E" transform="translate(141,36)"/>
<path d="M0 0 C9.16374951 -0.60287826 9.16374951 -0.60287826 12.6875 1.9375 C14.47055784 6.0979683 14.34998358 9.68328603 13 14 C11.765625 15.76171875 11.765625 15.76171875 10 17 C7.51953125 17.29296875 7.51953125 17.29296875 4.8125 17.1875 C3.224375 17.125625 1.63625 17.06375 0 17 C0 11.39 0 5.78 0 0 Z " fill="#F8F8F8" transform="translate(93,34)"/>
<path d="M0 0 C2.475 0.495 2.475 0.495 5 1 C5.66 0.67 6.32 0.34 7 0 C12.25211972 -0.44698891 12.25211972 -0.44698891 14.6796875 1.00390625 C16.77268036 4.16816469 16.31202681 7.53152062 16.1875 11.1875 C16.16719727 12.31188477 16.16719727 12.31188477 16.14648438 13.45898438 C16.11118539 15.30629767 16.05737917 17.15324066 16 19 C14.68 19 13.36 19 12 19 C11.67 14.05 11.34 9.1 11 4 C9.35 4 7.7 4 6 4 C4.05909174 5.94090826 4.60080565 9.47293902 4.4375 12.0625 C4.35371094 13.35285156 4.26992188 14.64320312 4.18359375 15.97265625 C4.12300781 16.97167969 4.06242187 17.97070312 4 19 C2.68 19 1.36 19 0 19 C0 12.73 0 6.46 0 0 Z " fill="#181818" transform="translate(262,36)"/>
<path d="M0 0 C1.8125 1.0625 1.8125 1.0625 3 3 C3.6384 8.9584 3.6384 8.9584 1.8125 11.9375 C-0.66049093 13.38718434 -2.17884512 13.42317323 -5 13 C-6.8125 11.9375 -6.8125 11.9375 -8 10 C-8.6384 4.0416 -8.6384 4.0416 -6.8125 1.0625 C-4.33950907 -0.38718434 -2.82115488 -0.42317323 0 0 Z " fill="#F1F1F1" transform="translate(161,39)"/>
<path d="M0 0 C2 2 2 2 2.3125 5.4375 C2 9 2 9 0.8125 10.9375 C-1.66049093 12.38718434 -3.17884512 12.42317323 -6 12 C-7.8125 10.9375 -7.8125 10.9375 -9 9 C-9.37142345 5.5333811 -9.61178961 3.08762598 -7.875 0 C-5.01126853 -1.52732345 -3.04699809 -0.84278671 0 0 Z " fill="#F7F7F7" transform="translate(295,40)"/>
<path d="M0 0 C1.32 0 2.64 0 4 0 C4.33 0.66 4.66 1.32 5 2 C5.66 1.34 6.32 0.68 7 0 C8.32 0 9.64 0 11 0 C11 1.32 11 2.64 11 4 C9.02 4.66 7.04 5.32 5 6 C4.67 10.29 4.34 14.58 4 19 C2.68 19 1.36 19 0 19 C0 12.73 0 6.46 0 0 Z " fill="#121212" transform="translate(115,36)"/>
<path d="M0 0 C3.5 -0.375 3.5 -0.375 7 0 C9.56687367 3.8503105 8.83288724 5.58569763 8 10 C5.03 10 2.06 10 -1 10 C-2.25 3.375 -2.25 3.375 0 0 Z " fill="#1082FF" transform="translate(36,40)"/>
<path d="M0 0 C0.99 0 1.98 0 3 0 C3.33 0.66 3.66 1.32 4 2 C4.66 1.34 5.32 0.68 6 0 C8.625 -0.125 8.625 -0.125 11 0 C10.67 1.32 10.34 2.64 10 4 C8.02 4.33 6.04 4.66 4 5 C3.67 9.62 3.34 14.24 3 19 C2.01 19 1.02 19 0 19 C0 12.73 0 6.46 0 0 Z " fill="#050505" transform="translate(327,36)"/>
<path d="M0 0 C1.47906892 -0.02689216 2.95827483 -0.04634621 4.4375 -0.0625 C5.26121094 -0.07410156 6.08492187 -0.08570313 6.93359375 -0.09765625 C9 0 9 0 10 1 C10.125 4 10.125 4 10 7 C9 8 9 8 6.93359375 8.09765625 C6.10988281 8.08605469 5.28617188 8.07445312 4.4375 8.0625 C3.61121094 8.05347656 2.78492188 8.04445313 1.93359375 8.03515625 C1.29550781 8.02355469 0.65742188 8.01195312 0 8 C0 5.36 0 2.72 0 0 Z " fill="#F4F4F4" transform="translate(221,34)"/>
<path d="M0 0 C0.99 0 1.98 0 3 0 C5.49055871 3.76435592 5.03090984 6.86617377 4.625 11.25 C4.51414063 12.51328125 4.40328125 13.7765625 4.2890625 15.078125 C4.14597656 16.52445313 4.14597656 16.52445313 4 18 C2.68 18 1.36 18 0 18 C0 12.06 0 6.12 0 0 Z " fill="#0D0D0D" transform="translate(173,37)"/>
<path d="M0 0 C0.66 0.66 1.32 1.32 2 2 C1.44444444 6.55555556 1.44444444 6.55555556 0 8 C-2.4375 8.1875 -2.4375 8.1875 -5 8 C-7 6 -7 6 -7.125 2.875 C-7.08375 1.92625 -7.0425 0.9775 -7 0 C-4.29393021 -1.35303489 -2.8671629 -0.7884698 0 0 Z " fill="#D2E7FF" transform="translate(56,25)"/>
<path d="M0 0 C1.37213132 2.74426265 0.36107653 4.2174024 -0.49960327 7.0199585 C-1.32731382 10.29516226 -1.3052017 13.58953041 -1.30078125 16.9453125 C-1.30506638 17.67821503 -1.3093515 18.41111755 -1.31376648 19.16622925 C-1.31947205 20.70407076 -1.32003812 22.24193925 -1.31567383 23.77978516 C-1.31249893 26.12579195 -1.33606962 28.47055352 -1.36132812 30.81640625 C-1.36360012 32.31770676 -1.36430508 33.81901062 -1.36328125 35.3203125 C-1.37709587 36.36422653 -1.37709587 36.36422653 -1.39118958 37.42922974 C-1.34960086 41.82082297 -0.55375915 44.44247219 2 48 C2.33 48.66 2.66 49.32 3 50 C-0.16115776 48.63016497 -0.9927092 48.0109362 -3 45 C-3.26069641 43.1096344 -3.26069641 43.1096344 -3.2746582 40.95922852 C-3.28419022 40.15151505 -3.29372223 39.34380157 -3.30354309 38.51161194 C-3.30263168 37.64281906 -3.30172028 36.77402618 -3.30078125 35.87890625 C-3.30506638 34.98259995 -3.3093515 34.08629364 -3.31376648 33.16282654 C-3.319509 31.2673324 -3.32001062 29.37181623 -3.31567383 27.47631836 C-3.31251572 24.57692838 -3.33596726 21.67856053 -3.36132812 18.77929688 C-3.36360132 16.93750129 -3.36430452 15.09570296 -3.36328125 13.25390625 C-3.372491 12.3871376 -3.38170074 11.52036896 -3.39118958 10.62733459 C-3.34476511 4.58378456 -3.34476511 4.58378456 -1.47729492 1.42163086 C-0.9897876 0.95249268 -0.50228027 0.48335449 0 0 Z " fill="#7BBAFF" transform="translate(15,18)"/>
<path d="M0 0 C1 2 1 2 0.9375 3.9375 C-0.5563949 7.22406878 -2.68824787 7.69965632 -6 9 C-9.19222144 9.39087583 -12.34266957 9.35040827 -15.5546875 9.29296875 C-16.45623566 9.28872391 -17.35778381 9.28447906 -18.28665161 9.28010559 C-21.14974565 9.26339058 -24.01212079 9.22575192 -26.875 9.1875 C-28.82290646 9.17244387 -30.77082402 9.15875709 -32.71875 9.14648438 C-37.47944122 9.11351058 -42.23959896 9.06177813 -47 9 C-47 8.67 -47 8.34 -47 8 C-45.26713745 7.97812622 -45.26713745 7.97812622 -43.49926758 7.95581055 C-39.20322088 7.89773178 -34.90769306 7.8204995 -30.61206055 7.73754883 C-28.7547245 7.70434451 -26.89728863 7.67629859 -25.03979492 7.65356445 C-22.36594202 7.61993558 -19.69300007 7.56761626 -17.01953125 7.51171875 C-16.19226028 7.50532883 -15.36498932 7.4989389 -14.51264954 7.49235535 C-9.86102203 7.3743757 -6.79613411 6.97224413 -3 4 C-1.21655822 1.93045153 -1.21655822 1.93045153 0 0 Z " fill="#7CBAFF" transform="translate(66,61)"/>
<path d="M0 0 C1.45986328 0.11794922 1.45986328 0.11794922 2.94921875 0.23828125 C3.72910156 0.38652344 4.50898437 0.53476562 5.3125 0.6875 C5.6425 1.3475 5.9725 2.0075 6.3125 2.6875 C5.26449219 2.62949219 4.21648438 2.57148437 3.13671875 2.51171875 C1.757857 2.46481869 0.37894713 2.41931878 -1 2.375 C-1.69029297 2.33310547 -2.38058594 2.29121094 -3.09179688 2.24804688 C-5.38043125 2.13908413 -5.38043125 2.13908413 -8.6875 2.6875 C-11.35237371 5.73921022 -12.07784435 8.51811428 -12.375 12.5 C-12.44074219 13.29019531 -12.50648437 14.08039062 -12.57421875 14.89453125 C-12.61160156 15.48621094 -12.64898438 16.07789062 -12.6875 16.6875 C-12.0275 16.6875 -11.3675 16.6875 -10.6875 16.6875 C-10.3575 18.3375 -10.0275 19.9875 -9.6875 21.6875 C-11.65625 20.62109375 -11.65625 20.62109375 -13.6875 18.6875 C-14.21875 15.47265625 -14.21875 15.47265625 -14.1875 11.75 C-14.1978125 10.52410156 -14.208125 9.29820313 -14.21875 8.03515625 C-13.60187937 4.14796415 -12.82998463 2.98350549 -9.6875 0.6875 C-6.44544217 -0.6293771 -3.44567404 -0.30822451 0 0 Z " fill="#8AC2FF" transform="translate(41.6875,33.3125)"/>
<path d="M0 0 C2.625 0.25 2.625 0.25 4.4375 1.625 C5.625 3.25 5.625 3.25 5.625 5.25 C1.995 5.25 -1.635 5.25 -5.375 5.25 C-2.90277778 0.30555556 -2.90277778 0.30555556 0 0 Z " fill="#CDCDCD" transform="translate(313.375,38.75)"/>
<path d="M0 0 C2.625 0.25 2.625 0.25 4.4375 1.625 C5.625 3.25 5.625 3.25 5.625 5.25 C1.995 5.25 -1.635 5.25 -5.375 5.25 C-2.90277778 0.30555556 -2.90277778 0.30555556 0 0 Z " fill="#CDCDCD" transform="translate(137.375,38.75)"/>
<path d="M0 0 C0.33 1.32 0.66 2.64 1 4 C-2.3 4 -5.6 4 -9 4 C-8.67 2.68 -8.34 1.36 -8 0 C-5.13822943 -1.43088528 -3.06624227 -0.59991697 0 0 Z " fill="#D4D4D4" transform="translate(253,40)"/>
<path d="M0 0 C0.66 0 1.32 0 2 0 C4.14336161 3.4766338 4.21277626 6.21229195 4.125 10.25 C4.10695313 11.32765625 4.08890625 12.4053125 4.0703125 13.515625 C4.04710937 14.33546875 4.02390625 15.1553125 4 16 C3.01 16 2.02 16 1 16 C1.01160156 15.18015625 1.02320313 14.3603125 1.03515625 13.515625 C1.04869141 11.89914063 1.04869141 11.89914063 1.0625 10.25 C1.07410156 9.18265625 1.08570313 8.1153125 1.09765625 7.015625 C1.01510087 4.46631499 0.74617558 2.42066409 0 0 Z " fill="#98C9FF" transform="translate(48,36)"/>
<path d="M0 0 C1 2 1 2 0.9375 3.9375 C0 6 0 6 -2.5 7.75 C-6.81785028 9.29208938 -10.47038354 9.27177699 -15 9 C-15 8.67 -15 8.34 -15 8 C-14.33613281 7.92523438 -13.67226563 7.85046875 -12.98828125 7.7734375 C-6.64051347 6.86649506 -6.64051347 6.86649506 -1.875 2.875 C-1.25625 1.92625 -0.6375 0.9775 0 0 Z " fill="#9ACAFF" transform="translate(66,61)"/>
<path d="M0 0 C0 0.99 0 1.98 0 3 C-0.33 3.33 -0.66 3.66 -1 4 C-1.23192865 5.51469448 -1.41215238 7.03754562 -1.5625 8.5625 C-1.64628906 9.38878906 -1.73007812 10.21507812 -1.81640625 11.06640625 C-1.87699219 11.70449219 -1.93757813 12.34257813 -2 13 C-1.34 13 -0.68 13 0 13 C0.33 14.65 0.66 16.3 1 18 C-0.97265625 16.875 -0.97265625 16.875 -3 15 C-3.49609375 12.1875 -3.49609375 12.1875 -3.4375 9 C-3.43621094 7.948125 -3.43492188 6.89625 -3.43359375 5.8125 C-2.96222103 2.7549472 -2.41347046 1.84371218 0 0 Z " fill="#B0D5FF" transform="translate(31,37)"/>
<path d="M0 0 C1.36118395 2.72236789 0.41390806 4.19776129 -0.453125 6.98046875 C-1.34728477 10.28247303 -1.64230282 13.60187681 -2 17 C-2.33 17 -2.66 17 -3 17 C-3.08126087 14.91731407 -3.13930839 12.83371342 -3.1875 10.75 C-3.22230469 9.58984375 -3.25710938 8.4296875 -3.29296875 7.234375 C-2.97982934 3.77731593 -2.34290892 2.48434437 0 0 Z " fill="#69B1FF" transform="translate(15,18)"/>
<path d="M0 0 C1.65 0 3.3 0 5 0 C4.67 1.32 4.34 2.64 4 4 C2.35 4.33 0.7 4.66 -1 5 C-0.67 3.35 -0.34 1.7 0 0 Z " fill="#1E1E1E" transform="translate(333,36)"/>
</svg>
